<svg xmlns="http://www.w3.org/2000/svg" enable-background="new 0 0 24 24" viewBox="0 0 24 24" id="login">
  <g id="_icons">
    <path d="M18.4141 18l.293-.293c.3906-.3906.3906-1.0234 0-1.4141s-1.0234-.3906-1.4141 0l-1.9993 1.9993c-.0925.0923-.1658.2031-.2166.3257-.1011.2444-.1011.5197 0 .764.0508.1226.124.2333.2166.3257l1.9993 1.9993C17.4883 21.9023 17.7441 22 18 22s.5117-.0977.707-.293c.3906-.3906.3906-1.0234 0-1.4141L18.4141 20H21c.5527 0 1-.4478 1-1s-.4473-1-1-1H18.4141zM5.1611 17.3613l-.0908.356c-.165.6567-.0361 1.3569.3516 1.9209.4131.5996 1.0762.9951 1.8223 1.085C8.8145 20.9067 10.4141 21 12 21c.3984 0 .7979-.0098 1.1963-.0205.5518-.0142.9883-.4736.9736-1.0259-.0146-.543-.459-.9736-.999-.9736-.0098 0-.0186 0-.0273.0005-1.8896.0474-3.7988-.0249-5.6631-.2432-.1738-.021-.3232-.106-.4111-.2334-.0654-.0952-.085-.1968-.0605-.2954l.0889-.3462c.2783-1.0649 1.0811-1.9424 2.1504-2.3486 1.7461-.6704 3.6914-.6816 5.4785-.0093.0381.0161.082.0342.1475.0601.1348.0508.2559.1152.3828.2017.457.311 1.0791.1938 1.3896-.2627.3115-.4561.1934-1.0786-.2627-1.3896-.2559-.1743-.5166-.3115-.7061-.3784-.0527-.0264-.1055-.0479-.1201-.0498-.0303-.0151-.0605-.0283-.0918-.0405-2.2646-.8594-4.7129-.8516-6.9307 0C6.8643 14.2793 5.6035 15.667 5.1611 17.3613zM17 7c0-2.7568-2.2432-5-5-5S7 4.2432 7 7s2.2432 5 5 5S17 9.7568 17 7zM9 7c0-1.6543 1.3457-3 3-3s3 1.3457 3 3-1.3457 3-3 3S9 8.6543 9 7z"></path>
  </g>
</svg>
